# xmcd
#
# Track frame offsets: 
#        183
#        36018
#        61808
#        82725
#        103898
#        148913
#        163680
#        189605
#        222640
#
# Disc length: 3424 seconds
#
# Revision: 0
# Processed by: cddbd v1.5.1PL2 Copyright (c) Steve Scherf et al.
# Submitted via: ExactAudioCopy v0.95b3
#
DISCID=800d5e09
DTITLE=King, Freddie - Live At Liberty Hall
DYEAR=1900
DGENRE=blues
TTITLE0=Hey Baby
TTITLE1=Feelin' Alright
TTITLE2=Ain't No Sunshine
TTITLE3=Going Down
TTITLE4=Have You Ever Loved A Woman
TTITLE5=My Feeling For The Blues
TTITLE6=I Love You So
TTITLE7=Let The Good Times Roll
TTITLE8=Kansas City
EXTD=
EXTT0=
EXTT1=
EXTT2=
EXTT3=
EXTT4=
EXTT5=
EXTT6=
EXTT7=
EXTT8=
PLAYORDER=
